 <svg version="1.0" xmlns="http://www.w3.org/2000/svg" width="700.000000pt" height="700.000000pt" viewBox="0 0 700.000000 700.000000" preserveAspectRatio="xMidYMid meet">
<metadata>
Created by potrace 1.12, written by Peter Selinger 2001-2015
</metadata>
<g transform="translate(0.000000,700.000000) scale(0.100000,-0.100000)" fill="#000000" stroke="none">
<path d="M1005 6601 c-23 -10 -49 -33 -60 -52 -20 -34 -20 -54 -23 -3008 -1
-2018 1 -2986 8 -3012 6 -21 24 -52 41 -68 53 -53 143 -37 185 33 18 30 19 80
22 1449 l2 1417 1095 0 1095 0 0 -1399 c0 -769 3 -1413 6 -1431 4 -17 21 -47
39 -66 28 -30 39 -34 81 -34 61 0 90 19 115 74 18 39 19 95 19 1449 l0 1407
1095 0 1095 0 0 -1399 c0 -769 3 -1413 6 -1431 4 -17 21 -47 39 -66 29 -30 38
-34 85 -34 47 0 56 4 85 34 18 19 35 49 39 66 3 18 6 1366 6 2996 0 2704 -1
2967 -16 3004 -21 52 -60 80 -114 80 -54 0 -93 -28 -114 -80 -14 -37 -16 -177
-16 -1465 l0 -1425 -1095 0 -1095 0 0 1425 c0 1577 4 1479 -64 1528 l-31 22
-1245 2 c-1194 3 -1247 2 -1285 -16z m2365 -1616 l0 -1345 -1095 0 -1095 0 0
1345 0 1345 1095 0 1095 0 0 -1345z"></path>
<path d="M1643 5838 c-12 -6 -26 -22 -32 -37 -8 -18 -11 -267 -9 -829 l3 -804
24 -19 c22 -18 48 -19 642 -19 606 0 619 0 639 20 20 20 20 33 20 838 0 449
-4 822 -8 828 -21 33 -50 34 -654 33 -401 0 -610 -4 -625 -11z m565 -460 l-3
-323 -235 0 -235 0 -3 323 -2 322 240 0 240 0 -2 -322z m600 0 l-3 -323 -230
0 -230 0 -3 323 -2 322 235 0 235 0 -2 -322z m-600 -785 l-3 -318 -235 0 -235
0 -3 318 -2 317 240 0 240 0 -2 -317z m600 0 l-3 -318 -230 0 -230 0 -3 318
-2 317 235 0 235 0 -2 -317z"></path>
<path d="M4094 5838 c-12 -5 -27 -21 -33 -34 -8 -18 -11 -256 -11 -815 0 -838
0 -835 45 -853 9 -3 293 -6 631 -6 601 0 614 0 634 20 20 20 20 33 20 838 0
449 -4 822 -8 828 -21 33 -50 34 -654 33 -393 0 -610 -4 -624 -11z m564 -460
l-3 -323 -235 0 -235 0 -3 323 -2 322 240 0 240 0 -2 -322z m600 0 l-3 -323
-230 0 -230 0 -3 323 -2 322 235 0 235 0 -2 -322z m-600 -785 l-3 -318 -235 0
-235 0 -3 318 -2 317 240 0 240 0 -2 -317z m600 0 l-3 -318 -230 0 -230 0 -3
318 -2 317 235 0 235 0 -2 -317z"></path>
<path d="M1620 2350 c-20 -20 -20 -30 -20 -894 0 -782 2 -876 16 -890 21 -22
67 -20 87 2 16 17 17 89 17 835 l0 817 23 5 c12 3 258 4 547 3 l525 -3 5 -840
c3 -462 6 -841 8 -842 1 -1 9 -9 18 -17 23 -24 60 -19 83 10 21 27 21 32 21
900 l0 873 -24 28 -24 28 -631 3 c-621 2 -631 2 -651 -18z"></path>
<path d="M4085 2345 l-25 -24 0 -863 c0 -959 -4 -908 64 -908 64 0 61 -46 66
854 l5 821 520 3 c286 1 530 0 542 -3 l23 -5 2 -834 c3 -804 4 -835 22 -855
25 -28 70 -27 90 1 14 20 16 122 16 899 0 483 -3 885 -6 894 -17 44 -28 45
-679 45 l-616 0 -24 -25z"></path>
<path d="M2587 1492 c-23 -25 -21 -78 3 -102 43 -43 110 -14 110 48 0 61 -75
96 -113 54z"></path>
<path d="M5050 1490 c-26 -26 -25 -60 1 -94 37 -48 119 -22 119 38 0 63 -77
99 -120 56z"></path>
</g>
</svg>